<?xml version="1.0" encoding="utf-8"?>
<svg version="1.1" xmlns:xlink="http://www.w3.org/1999/xlink" width="81px" height="71px" xmlns="http://www.w3.org/2000/svg">
  <g transform="matrix(1 0 0 1 -489 -767 )">
    <path d="M 74.0845914920022 7.35364822010171  L 73.8385970954721 7.10801493486087  C 64.6710957478815 -1.91148209388035  50.0541811036454 -2.22589269898863  40.5028938725367 6.38086180789669  C 30.9517640274783 -2.22597130163991  16.334691997192 -1.90165676247071  7.16711195657624 7.10793633220959  C -2.1873640187033 16.3338439232044  -2.2955669282455 31.3859372321582  6.94086950935165 40.7395741314782  L 7.16703326355112 40.9654781512485  L 35.0928270884521 68.6036637906405  C 38.0241422742316 71.5905645391692  42.8243381136238 71.6298658648077  45.8145943752194 68.7019171047369  L 45.9129606566214 68.6036637906405  L 73.8385970954721 40.9850502114165  C 83.202988391917 31.7691251571339  83.3209492365742 16.7070493114679  74.0845914920022 7.35356961745043  Z M 64.946521335807 26.9940926947032  C 64.2579573659931 26.9940926947032  63.6874329338615 26.4341274070053  63.6874329338615 25.7364502742701  C 63.6874329338615 21.2071296997314  60.008612702452 17.5324557525284  55.4740058228451 17.5324557525284  C 55.1395604660783 17.5324557525284  54.8148730444266 17.3949797154448  54.5788726620869 17.1590931589623  C 54.3427935867222 16.9232852051311  54.2050807927594 16.5990492686132  54.2050807927594 16.265066603337  C 54.2050766683691 16.2637545033629  54.2050746061702 16.2624423977302  54.2050746061702 16.2611302912888  C 54.2050746061702 15.5687241140232  54.7670260816609 15.0074180034196  55.4602283568597 15.0074180034196  C 55.4615419719023 15.0074180034196  55.462855586137 15.0074200632502  55.4641691947049 15.0074241829038  C 61.3955772702201 15.0074241829038  66.2055310447275 19.8119326395635  66.2055310447275 25.7365288769213  C 66.2055310447275 26.4243020755957  65.6448432407361 26.9941712973544  64.9464426427819 26.9941712973544  Z " fill-rule="nonzero" fill="#137fc0" stroke="none" transform="matrix(1 0 0 1 489 767 )" />
  </g>
</svg>