<?xml version="1.0" encoding="utf-8"?>
<svg version="1.1" xmlns:xlink="http://www.w3.org/1999/xlink" width="65px" height="57px" xmlns="http://www.w3.org/2000/svg">
  <g transform="matrix(1 0 0 1 -1413 -521 )">
    <path d="M 59.450598110866 5.90363307810982  L 59.2531952000702 5.70643452516999  C 51.8965583162012 -1.53457013170676  40.1669354535426 -1.78698427946974  32.5023222433937 5.12266370493115  C 24.8378353306925 -1.78704738300668  13.1080861705862 -1.52668218958916  5.75138613799328 5.70637142163305  C -1.75529211377426 13.1130859665162  -1.84212160908589 25.1971608765213  5.56983355688713 32.7064186689332  L 5.75132298926942 32.8877782341009  L 28.1609106265356 55.0761807896692  C 30.5132005904327 57.4741151934175  34.3652095973525 57.5056669618879  36.7647979554229 55.1550602108451  L 36.8437338602517 55.0761807896692  L 59.2531952000702 32.9034910147992  C 66.7678301910445 25.5047906191075  66.8624901281151 13.4127015599109  59.450598110866 5.90356997457288  Z M 52.1175788497217 21.6713138534941  C 51.5650275159204 21.6713138534941  51.1071992679136 21.2217642563282  51.1071992679136 20.6616572624422  C 51.1071992679136 17.0254421533055  48.1550595760417 14.0753518013256  44.5161775121597 14.0753518013256  C 44.2477954357419 14.0753518013256  43.9872438010831 13.9649837152163  43.7978607782179 13.7756100008571  C 43.6084146066289 13.5862993900349  43.4979043398686 13.3259973001543  43.4979043398686 13.057870371693  C 43.4979010301728 13.0568169956575  43.4978993753218 13.0557636150792  43.4978993753218 13.0547102338516  C 43.4978993753218 12.4988348521031  43.9488480902217 12.0482088196467  44.5051215209368 12.0482088196467  C 44.5061756564648 12.0482088196467  44.5072297913445 12.0482104733135  44.5082839216768 12.0482137806411  C 49.2680558341273 12.0482137806411  53.127895282806 15.9053543726073  53.127895282806 20.6617203659791  C 53.127895282806 21.2138763142106  52.6779606252821 21.671376957031  52.1175157009978 21.671376957031  Z " fill-rule="nonzero" fill="#f59a23" stroke="none" transform="matrix(1 0 0 1 1413 521 )" />
  </g>
</svg>