<?xml version="1.0" encoding="utf-8"?>
<svg version="1.1" xmlns:xlink="http://www.w3.org/1999/xlink" width="72px" height="63px" xmlns="http://www.w3.org/2000/svg">
  <g transform="matrix(1 0 0 1 -673 -676 )">
    <path d="M 65.8529702151131 6.52506813896349  L 65.6343085293085 6.30711184360894  C 57.4854184425613 -1.69610382978115  44.4926054254626 -1.97508788783498  36.0025723311438 5.66189146334495  C 27.5126791355363 -1.97515763384949  14.5197262197262 -1.68738557796697  6.37076618362333 6.30704209759442  C -1.94432357218071 14.4934108050969  -2.04050393621822 27.8494936003657  6.16966178609036 36.1491995814525  L 6.37069623426766 36.3496496271642  L 31.1936240786241 60.8736735043712  C 33.7992375770947 63.5240220558825  38.0660783232212 63.5588950631393  40.7240838890839 60.960856022513  L 40.8115205836634 60.8736735043712  L 65.6343085293085 36.367016384778  C 73.9582119039262 28.1895054211188  74.063065988066 14.8245648820067  65.8529702151131 6.52499839294897  Z M 57.730241187384 23.9525047854408  C 57.1181843253272 23.9525047854408  56.6110514967658 23.455634178047  56.6110514967658 22.8365685532255  C 56.6110514967658 18.8175939589166  53.3409890688462 15.5569677804125  49.3102273980845 15.5569677804125  C 49.0129426365141 15.5569677804125  48.7243315950459 15.4349820010285  48.5145534774106 15.2256742114736  C 48.3047054104197 15.0164361679333  48.1822940380083 14.7287338580653  48.1822940380083 14.4323830423976  C 48.1822903718837 14.4312187846741  48.182288538818 14.4300545219296  48.182288538818 14.4288902584675  C 48.182288538818 13.8145016786403  48.6818009614764 13.3164413269779  49.297980761653 13.3164413269779  C 49.2991484194687 13.3164413269779  49.3003160765662 13.316443154715  49.3014837286266 13.3164468101823  C 54.5738464624179 13.3164468101823  58.8493609286466 17.5796022013028  58.8493609286466 22.83663829924  C 58.8493609286466 23.4469159262328  58.3509717695432 23.9525745314553  57.7301712380284 23.9525745314553  Z " fill-rule="nonzero" fill="#651b7a" stroke="none" transform="matrix(1 0 0 1 673 676 )" />
  </g>
</svg>