<?xml version="1.0" encoding="utf-8"?>
<svg version="1.1" xmlns:xlink="http://www.w3.org/1999/xlink" width="84px" height="74px" xmlns="http://www.w3.org/2000/svg">
  <g transform="matrix(1 0 0 1 -906 -373 )">
    <path d="M 76.8284652509653 7.66436575052854  L 76.5733599508599 7.40835359408034  C 67.0663215163215 -1.99224894291754  51.9080396630397 -2.31994450317125  42.0030010530011 6.65047568710359  C 32.0981256581257 -2.32002642706131  16.9396805896806 -1.98200845665962  7.43256054756055 7.40827167019028  C -2.2683775008775 17.0240063424947  -2.38058792558792 32.7121035940803  7.19793875043875 42.4609645877378  L 7.43247893997894 42.6964138477801  L 36.3925614250614 71.5024101479915  C 39.4324438399438 74.6155179704017  44.4104247104247 74.6564799154334  47.5114312039312 71.6048150105708  L 47.6134406809407 71.5024101479915  L 76.5733599508599 42.7168128964059  C 86.2845805545806 33.1114825581395  86.4069103194103 17.4129809725159  76.8284652509653 7.66428382663848  Z M 67.3519480519481 28.1346881606765  C 66.6378817128817 28.1346881606765  66.0462267462267 27.5510623678647  66.0462267462267 26.8239059196617  C 66.0462267462267 22.103205602537  62.2311539136539 18.2732637420719  57.5285986310986 18.2732637420719  C 57.1817664092664 18.2732637420719  56.8450535275535 18.1299788583509  56.6003123903124 17.8841252642706  C 56.3554896454896 17.6383535940803  56.2126763776764 17.3004175475687  56.2126763776764 16.9523229386892  C 56.2126721005309 16.9509553978712  56.2126699619543 16.9495878511554  56.2126699619543 16.9482203035968  C 56.2126699619543 16.2265575272917  56.7954344550558 15.6415342570852  57.5143108885952 15.6415342570852  C 57.5156731560468 15.6415342570852  57.5170354226606 15.6415364039509  57.5183976833977 15.6415406976744  C 63.6694875394875 15.6415406976744  68.6575877500877 20.6490565539112  68.6575877500877 26.8239878435518  C 68.6575877500877 27.5408218816068  68.0761337311337 28.1347700845666  67.3518664443664 28.1347700845666  Z " fill-rule="nonzero" fill="#00bfbf" stroke="none" transform="matrix(1 0 0 1 906 373 )" />
  </g>
</svg>