<?xml version="1.0" encoding="utf-8"?>
<svg version="1.1" xmlns:xlink="http://www.w3.org/1999/xlink" width="110px" height="97px" xmlns="http://www.w3.org/2000/svg">
  <g transform="matrix(1 0 0 1 -494 -580 )">
    <path d="M 100.608704495312 10.0465334838009  L 100.274638030888 9.71094998142964  C 87.824944842802 -2.61146145220273  67.9748138444567 -3.04100833523798  55.0039299503585 8.71751542768985  C 42.0332597904027 -3.04111572195874  22.1829150579151 -2.59803811210788  9.73311500275786 9.71084259470888  C -2.9704943463872 22.3152515570539  -3.11743656922228 42.8793790354837  9.4258721731936 55.6582914190618  L 9.73300813568671 55.9669208545226  L 47.6569256756757 93.7261322210159  C 51.6377240761169 97.8068276098509  58.1565085493657 97.8605209702303  62.2173503861004 93.8603656219644  L 62.3509342250414 93.7261322210159  L 100.274638030888 55.9936601479916  C 112.991712630998 43.4028892991829  113.151906370656 22.8251237072167  100.608704495312 10.0464260970802  Z M 88.1989795918367 36.8792533998057  C 87.2638927192499 36.8792533998057  86.4891064533922 36.1142304011199  86.4891064533922 35.1610658676647  C 86.4891064533922 28.9731208573796  81.4931777440706 23.952791661905  75.3350696359625 23.952791661905  C 74.8808845835631 23.952791661905  74.4399510479868 23.7649722872979  74.1194567015995 23.4427047383007  C 73.7988554881412 23.1205445760242  73.6118381136238 22.6775743528941  73.6118381136238 22.2212881763899  C 73.6118325126 22.2194955891014  73.611829712083 22.2177029940821  73.611829712083 22.215910397958  C 73.611829712083 21.2699470290176  74.3749736911445 20.5030922018549  75.3163594969699 20.5030922018549  C 75.3181434186327 20.5030922018549  75.3199273391984 20.5030950159897  75.3217112520684 20.5031006442489  C 83.3767098731384 20.5031006442489  89.9087458632101 27.0670065639106  89.9087458632101 35.1611732543855  C 89.9087458632101 36.1008070610251  89.1473179812465 36.8793607865265  88.1988727247656 36.8793607865265  Z " fill-rule="nonzero" fill="#02a7f0" stroke="none" transform="matrix(1 0 0 1 494 580 )" />
  </g>
</svg>